<svg width="26" height="25" viewBox="0 0 26 25" fill="none" xmlns="http://www.w3.org/2000/svg">
<path d="M18.8136 14.6494C19.122 14.6494 19.4178 14.5269 19.6359 14.3088C19.854 14.0908 19.9765 13.795 19.9765 13.4866C19.9765 13.1782 19.854 12.8824 19.6359 12.6643C19.4178 12.4462 19.122 12.3237 18.8136 12.3237C18.5052 12.3237 18.2095 12.4462 17.9914 12.6643C17.7733 12.8824 17.6508 13.1782 17.6508 13.4866C17.6508 13.795 17.7733 14.0908 17.9914 14.3088C18.2095 14.5269 18.5052 14.6494 18.8136 14.6494ZM18.8136 19.3008C19.122 19.3008 19.4178 19.1783 19.6359 18.9602C19.854 18.7421 19.9765 18.4464 19.9765 18.138C19.9765 17.8295 19.854 17.5338 19.6359 17.3157C19.4178 17.0976 19.122 16.9751 18.8136 16.9751C18.5052 16.9751 18.2095 17.0976 17.9914 17.3157C17.7733 17.5338 17.6508 17.8295 17.6508 18.138C17.6508 18.4464 17.7733 18.7421 17.9914 18.9602C18.2095 19.1783 18.5052 19.3008 18.8136 19.3008ZM14.1623 13.4866C14.1623 13.795 14.0397 14.0908 13.8217 14.3088C13.6036 14.5269 13.3078 14.6494 12.9994 14.6494C12.691 14.6494 12.3952 14.5269 12.1772 14.3088C11.9591 14.0908 11.8366 13.795 11.8366 13.4866C11.8366 13.1782 11.9591 12.8824 12.1772 12.6643C12.3952 12.4462 12.691 12.3237 12.9994 12.3237C13.3078 12.3237 13.6036 12.4462 13.8217 12.6643C14.0397 12.8824 14.1623 13.1782 14.1623 13.4866ZM14.1623 18.138C14.1623 18.4464 14.0397 18.7421 13.8217 18.9602C13.6036 19.1783 13.3078 19.3008 12.9994 19.3008C12.691 19.3008 12.3952 19.1783 12.1772 18.9602C11.9591 18.7421 11.8366 18.4464 11.8366 18.138C11.8366 17.8295 11.9591 17.5338 12.1772 17.3157C12.3952 17.0976 12.691 16.9751 12.9994 16.9751C13.3078 16.9751 13.6036 17.0976 13.8217 17.3157C14.0397 17.5338 14.1623 17.8295 14.1623 18.138ZM7.18518 14.6494C7.49359 14.6494 7.78936 14.5269 8.00744 14.3088C8.22551 14.0908 8.34803 13.795 8.34803 13.4866C8.34803 13.1782 8.22551 12.8824 8.00744 12.6643C7.78936 12.4462 7.49359 12.3237 7.18518 12.3237C6.87678 12.3237 6.581 12.4462 6.36293 12.6643C6.14485 12.8824 6.02234 13.1782 6.02234 13.4866C6.02234 13.795 6.14485 14.0908 6.36293 14.3088C6.581 14.5269 6.87678 14.6494 7.18518 14.6494ZM7.18518 19.3008C7.49359 19.3008 7.78936 19.1783 8.00744 18.9602C8.22551 18.7421 8.34803 18.4464 8.34803 18.138C8.34803 17.8295 8.22551 17.5338 8.00744 17.3157C7.78936 17.0976 7.49359 16.9751 7.18518 16.9751C6.87678 16.9751 6.581 17.0976 6.36293 17.3157C6.14485 17.5338 6.02234 17.8295 6.02234 18.138C6.02234 18.4464 6.14485 18.7421 6.36293 18.9602C6.581 19.1783 6.87678 19.3008 7.18518 19.3008Z" fill="white"/>
<path fill-rule="evenodd" clip-rule="evenodd" d="M7.18519 0.404541C7.4165 0.404541 7.63833 0.496426 7.80189 0.659983C7.96544 0.82354 8.05733 1.04537 8.05733 1.27667V2.16393C8.82713 2.14881 9.67484 2.14881 10.6074 2.14881H15.3902C16.324 2.14881 17.1717 2.14881 17.9415 2.16393V1.27667C17.9415 1.04537 18.0334 0.82354 18.1969 0.659983C18.3605 0.496426 18.5823 0.404541 18.8136 0.404541C19.0449 0.404541 19.2668 0.496426 19.4303 0.659983C19.5939 0.82354 19.6858 1.04537 19.6858 1.27667V2.23835C19.9881 2.2616 20.2742 2.29068 20.5451 2.32672C21.908 2.51045 23.0115 2.89652 23.8825 3.76632C24.7523 4.6373 25.1384 5.74084 25.3221 7.10369C25.5 8.42933 25.5 10.1213 25.5 12.2586V14.7145C25.5 16.8518 25.5 18.5449 25.3221 19.8694C25.1384 21.2323 24.7523 22.3358 23.8825 23.2068C23.0115 24.0766 21.908 24.4626 20.5451 24.6464C19.2195 24.8243 17.5275 24.8243 15.3902 24.8243H10.6098C8.47246 24.8243 6.77936 24.8243 5.45488 24.6464C4.09203 24.4626 2.98849 24.0766 2.11752 23.2068C1.24771 22.3358 0.861645 21.2323 0.677915 19.8694C0.5 18.5438 0.5 16.8518 0.5 14.7145V12.2586C0.5 10.1213 0.5 8.42817 0.677915 7.10369C0.861645 5.74084 1.24771 4.6373 2.11752 3.76632C2.98849 2.89652 4.09203 2.51045 5.45488 2.32672C5.72582 2.29068 6.01305 2.2616 6.31422 2.23835V1.27667C6.31422 1.04557 6.40595 0.823917 6.56925 0.660394C6.73256 0.49687 6.95409 0.404849 7.18519 0.404541ZM5.68512 4.05587C4.51647 4.21286 3.84202 4.50822 3.35013 5.0001C2.85825 5.49199 2.56289 6.16644 2.4059 7.33626C2.37916 7.53394 2.35706 7.74325 2.33846 7.96303H23.6604C23.6418 7.74209 23.6197 7.53394 23.5929 7.3351C23.436 6.16644 23.1406 5.49199 22.6487 5.0001C22.1568 4.50822 21.4824 4.21286 20.3125 4.05587C19.1183 3.8954 17.5427 3.89308 15.3251 3.89308H10.6737C8.45618 3.89308 6.88169 3.8954 5.68512 4.05587ZM2.2431 12.3237C2.2431 11.3306 2.2431 10.4666 2.25822 9.7073H23.7406C23.7557 10.4666 23.7557 11.3306 23.7557 12.3237V14.6494C23.7557 16.8669 23.7534 18.4426 23.5929 19.638C23.436 20.8067 23.1406 21.4811 22.6487 21.973C22.1568 22.4649 21.4824 22.7602 20.3125 22.9172C19.1183 23.0777 17.5427 23.08 15.3251 23.08H10.6737C8.45618 23.08 6.88169 23.0777 5.68512 22.9172C4.51647 22.7602 3.84202 22.4649 3.35013 21.973C2.85825 21.4811 2.56289 20.8067 2.4059 19.6368C2.24543 18.4426 2.2431 16.8669 2.2431 14.6494V12.3237Z" fill="white"/>
</svg>
