<svg width="31" height="31" viewBox="0 0 31 31" fill="none" xmlns="http://www.w3.org/2000/svg">
<path d="M27.0397 30.5699H26.8436C4.17887 29.2665 0.96082 10.1428 0.510986 4.30648C0.47474 3.85271 0.52839 3.39623 0.668861 2.96322C0.809331 2.53021 1.03386 2.12917 1.32959 1.78309C1.62532 1.437 1.98643 1.15267 2.39223 0.946382C2.79803 0.740094 3.24055 0.615906 3.69443 0.580934H10.0498C10.5118 0.580486 10.9633 0.718779 11.3458 0.977897C11.7283 1.23702 12.0242 1.60502 12.1951 2.03424L13.9483 6.34804C14.1172 6.76736 14.159 7.22704 14.0688 7.66997C13.9786 8.11289 13.7602 8.51955 13.4408 8.83943L10.9841 11.3193C11.3678 13.5001 12.4122 15.5104 13.9759 17.0783C15.5396 18.6461 17.5472 19.6958 19.727 20.0853L22.2299 17.6054C22.5546 17.2896 22.9651 17.0763 23.4102 16.9922C23.8553 16.9081 24.3153 16.9569 24.7328 17.1325L29.0812 18.8742C29.504 19.0505 29.8647 19.3487 30.1173 19.7308C30.37 20.1129 30.5032 20.5615 30.4999 21.0196V27.1096C30.4999 28.0273 30.1354 28.9075 29.4865 29.5564C28.8375 30.2053 27.9574 30.5699 27.0397 30.5699ZM3.97125 2.88778C3.66534 2.88778 3.37197 3.0093 3.15566 3.22561C2.93935 3.44191 2.81783 3.73529 2.81783 4.0412V4.13347C3.3484 10.9617 6.751 27.1096 26.9705 28.263C27.122 28.2724 27.2739 28.2518 27.4174 28.2023C27.561 28.1528 27.6933 28.0755 27.8069 27.9748C27.9205 27.8741 28.0131 27.7519 28.0794 27.6153C28.1456 27.4787 28.1843 27.3304 28.1931 27.1788V21.0196L23.8447 19.2779L20.5344 22.5651L19.9807 22.4959C9.94597 21.2387 8.58494 11.2039 8.58494 11.1001L8.51573 10.5465L11.7914 7.23618L10.0613 2.88778H3.97125Z" fill="#F4F4F4"/>
</svg>
