<svg width="33" height="25" viewBox="0 0 33 25" fill="none" xmlns="http://www.w3.org/2000/svg">
<path d="M30.5 0.5H2.5C1.96957 0.5 1.46086 0.710714 1.08579 1.08579C0.710714 1.46086 0.5 1.96957 0.5 2.5V22.5C0.5 23.0304 0.710714 23.5391 1.08579 23.9142C1.46086 24.2893 1.96957 24.5 2.5 24.5H30.5C31.0304 24.5 31.5391 24.2893 31.9142 23.9142C32.2893 23.5391 32.5 23.0304 32.5 22.5V2.5C32.5 1.96957 32.2893 1.46086 31.9142 1.08579C31.5391 0.710714 31.0304 0.5 30.5 0.5ZM28.96 22.5H4.16L11.16 15.26L9.72 13.87L2.5 21.34V4.02L14.93 16.39C15.3047 16.7625 15.8116 16.9716 16.34 16.9716C16.8684 16.9716 17.3753 16.7625 17.75 16.39L30.5 3.71V21.21L23.14 13.85L21.73 15.26L28.96 22.5ZM3.81 2.5H28.88L16.34 14.97L3.81 2.5Z" fill="#F4F4F4"/>
</svg>
