<svg width="25" height="20" viewBox="0 0 25 20" fill="none" xmlns="http://www.w3.org/2000/svg">
<path id="Vector" d="M22.9516 7.74194H21.7235L18.3065 4.32484C18.1632 4.18043 17.9927 4.06594 17.8048 3.98803C17.6169 3.91011 17.4153 3.87032 17.2119 3.87097H13.2742V1.54839H15.5968C15.8021 1.54839 15.999 1.46682 16.1442 1.32163C16.2894 1.17644 16.371 0.979523 16.371 0.774194C16.371 0.568865 16.2894 0.371945 16.1442 0.226756C15.999 0.0815666 15.8021 0 15.5968 0H9.40323C9.1979 0 9.00098 0.0815666 8.85579 0.226756C8.7106 0.371945 8.62903 0.568865 8.62903 0.774194C8.62903 0.979523 8.7106 1.17644 8.85579 1.32163C9.00098 1.46682 9.1979 1.54839 9.40323 1.54839H11.7258V3.87097H5.91935C5.5087 3.87097 5.11486 4.0341 4.82448 4.32448C4.5341 4.61486 4.37097 5.0087 4.37097 5.41935V10.4516H2.04839V8.12903C2.04839 7.9237 1.96682 7.72678 1.82163 7.5816C1.67644 7.43641 1.47952 7.35484 1.27419 7.35484C1.06886 7.35484 0.871945 7.43641 0.726756 7.5816C0.581567 7.72678 0.5 7.9237 0.5 8.12903V14.3226C0.5 14.5279 0.581567 14.7248 0.726756 14.87C0.871945 15.0152 1.06886 15.0968 1.27419 15.0968C1.47952 15.0968 1.67644 15.0152 1.82163 14.87C1.96682 14.7248 2.04839 14.5279 2.04839 14.3226V12H4.37097V14.0023C4.37032 14.2057 4.41011 14.4072 4.48802 14.5951C4.56594 14.783 4.68043 14.9535 4.82484 15.0968L8.62903 18.901C8.77229 19.0454 8.94283 19.1599 9.13073 19.2378C9.31862 19.3157 9.52014 19.3555 9.72355 19.3548H17.2119C17.4153 19.3555 17.6169 19.3157 17.8048 19.2378C17.9927 19.1599 18.1632 19.0454 18.3065 18.901L21.7235 15.4839H22.9516C23.3623 15.4839 23.7561 15.3207 24.0465 15.0304C24.3369 14.74 24.5 14.3461 24.5 13.9355V9.29032C24.5 8.87967 24.3369 8.48583 24.0465 8.19545C23.7561 7.90507 23.3623 7.74194 22.9516 7.74194ZM22.9516 13.9355H21.4032C21.3015 13.9354 21.2008 13.9554 21.1068 13.9942C21.0128 14.0331 20.9274 14.0901 20.8555 14.1619L17.2119 17.8065H9.72355L5.91935 14.0023V5.41935H17.2119L20.8555 9.06387C20.9274 9.13574 21.0128 9.19273 21.1068 9.23159C21.2008 9.27044 21.3015 9.2904 21.4032 9.29032H22.9516V13.9355Z" fill="white"/>
</svg>
