<svg width="18" height="16" viewBox="0 0 18 16" fill="none" xmlns="http://www.w3.org/2000/svg">
<path d="M9 16.002L8.242 15.317C6.61 13.8264 5.26 12.5504 4.192 11.489C3.12467 10.427 2.282 9.49038 1.664 8.67905C1.046 7.86771 0.614003 7.13438 0.368003 6.47905C0.122003 5.82371 -0.000663964 5.16338 2.7027e-06 4.49805C2.7027e-06 3.22605 0.432003 2.15805 1.296 1.29405C2.16 0.430047 3.228 -0.00195313 4.5 -0.00195312C5.38 -0.00195312 6.205 0.223047 6.975 0.673047C7.745 1.12305 8.42 1.77771 9 2.63705C9.58 1.77771 10.255 1.12305 11.025 0.673047C11.795 0.223047 12.62 -0.00195312 13.5 -0.00195312C14.772 -0.00195312 15.84 0.430047 16.704 1.29405C17.568 2.15805 18 3.22605 18 4.49805C18 5.16205 17.8773 5.82205 17.632 6.47805C17.386 7.13538 16.954 7.86938 16.336 8.68005C15.718 9.49071 14.8783 10.427 13.817 11.489C12.7557 12.5504 11.4023 13.8264 9.757 15.317L9 16.002ZM9 14.648C10.6 13.2014 11.9167 11.9627 12.95 10.932C13.9833 9.90138 14.8 9.00638 15.4 8.24705C16 7.48771 16.4167 6.81605 16.65 6.23205C16.8833 5.64671 17 5.06871 17 4.49805C17 3.49805 16.6667 2.66471 16 1.99805C15.3333 1.33138 14.5 0.998047 13.5 0.998047C12.704 0.998047 11.9693 1.22538 11.296 1.68005C10.6227 2.13471 10.0207 2.81905 9.49 3.73305H8.512C7.96734 2.80638 7.36167 2.11871 6.695 1.67005C6.02834 1.22205 5.297 0.998047 4.501 0.998047C3.51434 0.998047 2.68434 1.33138 2.011 1.99805C1.33767 2.66471 1.00067 3.49805 1 4.49805C1 5.06871 1.11667 5.64671 1.35 6.23205C1.58334 6.81738 2 7.48905 2.6 8.24705C3.2 9.00505 4.01667 9.89671 5.05 10.922C6.08334 11.9474 7.4 13.1894 9 14.648Z" fill="white"/>
</svg>
