<svg width="38" height="36" viewBox="0 0 38 36" fill="none" xmlns="http://www.w3.org/2000/svg">
<rect y="-0.00195312" width="38" height="36.004" rx="18.002" fill="white"/>
<path d="M19 26.002L18.242 25.317C16.61 23.8264 15.26 22.5504 14.192 21.489C13.1247 20.427 12.282 19.4904 11.664 18.679C11.046 17.8677 10.614 17.1344 10.368 16.479C10.122 15.8237 9.99934 15.1634 10 14.498C10 13.226 10.432 12.158 11.296 11.294C12.16 10.43 13.228 9.99805 14.5 9.99805C15.38 9.99805 16.205 10.223 16.975 10.673C17.745 11.123 18.42 11.7777 19 12.637C19.58 11.7777 20.255 11.123 21.025 10.673C21.795 10.223 22.62 9.99805 23.5 9.99805C24.772 9.99805 25.84 10.43 26.704 11.294C27.568 12.158 28 13.226 28 14.498C28 15.162 27.8773 15.822 27.632 16.478C27.386 17.1354 26.954 17.8694 26.336 18.68C25.718 19.4907 24.8783 20.427 23.817 21.489C22.7557 22.5504 21.4023 23.8264 19.757 25.317L19 26.002ZM19 24.648C20.6 23.2014 21.9167 21.9627 22.95 20.932C23.9833 19.9014 24.8 19.0064 25.4 18.247C26 17.4877 26.4167 16.816 26.65 16.232C26.8833 15.6467 27 15.0687 27 14.498C27 13.498 26.6667 12.6647 26 11.998C25.3333 11.3314 24.5 10.998 23.5 10.998C22.704 10.998 21.9693 11.2254 21.296 11.68C20.6227 12.1347 20.0207 12.819 19.49 13.733H18.512C17.9673 12.8064 17.3617 12.1187 16.695 11.67C16.0283 11.222 15.297 10.998 14.501 10.998C13.5143 10.998 12.6843 11.3314 12.011 11.998C11.3377 12.6647 11.0007 13.498 11 14.498C11 15.0687 11.1167 15.6467 11.35 16.232C11.5833 16.8174 12 17.489 12.6 18.247C13.2 19.005 14.0167 19.8967 15.05 20.922C16.0833 21.9474 17.4 23.1894 19 24.648Z" fill="black"/>
</svg>
