<svg width="23" height="22" viewBox="0 0 23 22" fill="none" xmlns="http://www.w3.org/2000/svg">
<path d="M22.2861 8.84565H21.4V8.8H11.5V13.2H17.7167C16.8097 15.7614 14.3727 17.6 11.5 17.6C7.85515 17.6 4.9 14.6448 4.9 11C4.9 7.35515 7.85515 4.4 11.5 4.4C13.1825 4.4 14.7131 5.0347 15.8786 6.07145L18.9899 2.9601C17.0253 1.12915 14.3974 0 11.5 0C5.42525 0 0.5 4.92525 0.5 11C0.5 17.0748 5.42525 22 11.5 22C17.5748 22 22.5 17.0748 22.5 11C22.5 10.2625 22.4241 9.5425 22.2861 8.84565Z" fill="#FFC107"/>
<path d="M1.76807 5.88005L5.38212 8.5305C6.36002 6.1094 8.72832 4.4 11.4998 4.4C13.1822 4.4 14.7129 5.0347 15.8783 6.07145L18.9897 2.9601C17.0251 1.12915 14.3972 0 11.4998 0C7.27467 0 3.61057 2.38535 1.76807 5.88005Z" fill="#FF3D00"/>
<path d="M11.5003 22C14.3416 22 16.9233 20.9127 18.8752 19.1444L15.4707 16.2635C14.3294 17.132 12.9344 17.6015 11.5003 17.6C8.63917 17.6 6.20982 15.7757 5.29462 13.2297L1.70752 15.9935C3.52802 19.5558 7.22512 22 11.5003 22Z" fill="#4CAF50"/>
<path d="M22.286 8.84565H21.4V8.8H11.5V13.2H17.7167C17.2828 14.419 16.5013 15.4843 15.4688 16.2641L15.4704 16.263L18.875 19.1439C18.6341 19.3628 22.5 16.5 22.5 11C22.5 10.2625 22.4241 9.5425 22.286 8.84565Z" fill="#1976D2"/>
</svg>
