<svg width="24" height="16" viewBox="0 0 24 16" fill="none" xmlns="http://www.w3.org/2000/svg">
<path id="Vector" fill-rule="evenodd" clip-rule="evenodd" d="M0 1.625C0 1.32663 0.118526 1.04048 0.329505 0.829505C0.540483 0.618526 0.826631 0.5 1.125 0.5H22.875C23.1734 0.5 23.4595 0.618526 23.6705 0.829505C23.8815 1.04048 24 1.32663 24 1.625C24 1.92337 23.8815 2.20952 23.6705 2.4205C23.4595 2.63147 23.1734 2.75 22.875 2.75H1.125C0.826631 2.75 0.540483 2.63147 0.329505 2.4205C0.118526 2.20952 0 1.92337 0 1.625ZM0 8C0 7.70163 0.118526 7.41548 0.329505 7.2045C0.540483 6.99353 0.826631 6.875 1.125 6.875H22.875C23.1734 6.875 23.4595 6.99353 23.6705 7.2045C23.8815 7.41548 24 7.70163 24 8C24 8.29837 23.8815 8.58452 23.6705 8.79549C23.4595 9.00647 23.1734 9.125 22.875 9.125H1.125C0.826631 9.125 0.540483 9.00647 0.329505 8.79549C0.118526 8.58452 0 8.29837 0 8ZM1.125 13.25C0.826631 13.25 0.540483 13.3685 0.329505 13.5795C0.118526 13.7905 0 14.0766 0 14.375C0 14.6734 0.118526 14.9595 0.329505 15.1705C0.540483 15.3815 0.826631 15.5 1.125 15.5H22.875C23.1734 15.5 23.4595 15.3815 23.6705 15.1705C23.8815 14.9595 24 14.6734 24 14.375C24 14.0766 23.8815 13.7905 23.6705 13.5795C23.4595 13.3685 23.1734 13.25 22.875 13.25H1.125Z" fill="white"/>
</svg>
