<svg width="41" height="31" viewBox="0 0 41 31" fill="none" xmlns="http://www.w3.org/2000/svg">
<path d="M25.3995 0.193164C24.6067 0.198878 23.8195 0.23745 22.9881 0.460307C22.0824 0.706172 21.2229 1.09849 20.4438 1.62174C19.3495 0.978878 18.2895 0.450307 17.2738 0.326021C16.0124 0.170307 14.841 0.254593 13.4795 0.283164C11.8653 0.316021 10.8124 1.14031 9.10383 1.80031C7.39669 2.45745 5.19812 3.09459 2.09526 3.09459H0.666687V16.8446L1.47097 17.246L4.10383 18.5417L13.4795 28.9874L13.5238 29.0317C14.5953 30.0917 16.041 30.3546 17.3181 30.2817C18.5967 30.2103 19.7967 29.836 20.7553 29.256C22.8653 27.9832 28.6124 23.9874 28.6124 23.9874L28.7467 23.8974L28.8367 23.8089C29.5167 23.1332 29.8581 22.3089 30.0867 21.4432L35.5767 18.6746L39.6838 17.2917L40.6667 16.9774V3.09459H39.2381C36.8367 3.11101 34.4555 2.65573 32.2295 1.75459C30.521 1.08745 29.4838 0.271735 27.8524 0.23745C26.981 0.220307 26.191 0.18745 25.3995 0.193164ZM25.4424 3.05031C26.0853 3.04459 26.8281 3.07888 27.7653 3.09459C27.9153 3.10031 29.2881 3.68602 31.2024 4.43459C32.821 5.07031 35.0695 5.63459 37.8095 5.81745V14.9246L34.5053 16.0417H34.4167L34.3267 16.0846L29.9981 18.2732C29.7683 17.6102 29.4035 17.0022 28.9267 16.4874L28.8367 16.3532L22.7653 8.89888L21.8724 7.78173L20.7553 8.67459L16.9167 11.8003C15.6281 12.6932 14.5838 12.436 13.5238 11.9346C13.2167 11.7889 13.2338 11.7446 12.9881 11.5774L19.5067 6.17459L19.5953 6.08602C21.531 4.16602 22.721 3.50174 23.7467 3.22888C24.261 3.08888 24.801 3.05602 25.4424 3.05031ZM15.4895 3.09459C15.9662 3.07663 16.4435 3.09142 16.9181 3.13888C17.2924 3.18316 17.7167 3.50174 18.0795 3.63031C17.9338 3.76459 17.8281 3.84174 17.6767 3.98745L17.5881 4.07745L9.77526 10.5489L8.56954 11.5317L9.64097 12.6474C9.64097 12.6474 10.6738 13.7646 12.2753 14.5232C13.8767 15.2817 16.3495 15.7117 18.5695 14.166L18.6595 14.076L21.4267 11.8003L26.6953 18.2732L26.7395 18.3632L26.7838 18.406C27.7267 19.3389 27.7053 20.806 26.7838 21.756C26.7724 21.766 26.7953 21.7889 26.7838 21.7989C26.7724 21.806 26.5838 21.9174 26.561 21.9346L24.6853 19.3889L22.3638 21.086L24.1953 23.5403C23.4524 24.0432 23.1181 24.306 22.3195 24.836L20.401 22.246L18.0781 23.9432L19.9095 26.3974C19.7467 26.4974 19.4124 26.7217 19.2838 26.8003C18.8324 27.0732 17.961 27.3803 17.1853 27.4246C16.4553 27.4646 15.8967 27.296 15.6238 27.0674L15.5795 27.0232L6.02526 16.4432L5.84669 16.2189L3.52383 15.0589V5.81745C6.2524 5.63888 8.51812 5.09745 10.131 4.47888C12.0395 3.74745 13.4024 3.14459 13.5681 3.13888L15.4895 3.09459Z" fill="#FCA311"/>
</svg>
