<svg width="23" height="23" viewBox="0 0 23 23" fill="none" xmlns="http://www.w3.org/2000/svg">
<path d="M7.02258 0.503906H16.2626C19.7826 0.503906 22.6426 3.36391 22.6426 6.88391V16.1239C22.6426 17.816 21.9704 19.4388 20.7739 20.6352C19.5774 21.8317 17.9547 22.5039 16.2626 22.5039H7.02258C3.50258 22.5039 0.642578 19.6439 0.642578 16.1239V6.88391C0.642578 5.19183 1.31475 3.56905 2.51124 2.37257C3.70772 1.17608 5.3305 0.503906 7.02258 0.503906ZM6.80258 2.70391C5.75232 2.70391 4.74508 3.12112 4.00244 3.86376C3.25979 4.60641 2.84258 5.61365 2.84258 6.66391V16.3439C2.84258 18.5329 4.61358 20.3039 6.80258 20.3039H16.4826C17.5328 20.3039 18.5401 19.8867 19.2827 19.1441C20.0254 18.4014 20.4426 17.3942 20.4426 16.3439V6.66391C20.4426 4.47491 18.6716 2.70391 16.4826 2.70391H6.80258ZM17.4176 4.35391C17.7823 4.35391 18.132 4.49877 18.3899 4.75663C18.6477 5.0145 18.7926 5.36423 18.7926 5.72891C18.7926 6.09358 18.6477 6.44332 18.3899 6.70118C18.132 6.95904 17.7823 7.10391 17.4176 7.10391C17.0529 7.10391 16.7032 6.95904 16.4453 6.70118C16.1874 6.44332 16.0426 6.09358 16.0426 5.72891C16.0426 5.36423 16.1874 5.0145 16.4453 4.75663C16.7032 4.49877 17.0529 4.35391 17.4176 4.35391ZM11.6426 6.00391C13.1013 6.00391 14.5002 6.58337 15.5317 7.61482C16.5631 8.64627 17.1426 10.0452 17.1426 11.5039C17.1426 12.9626 16.5631 14.3615 15.5317 15.393C14.5002 16.4244 13.1013 17.0039 11.6426 17.0039C10.1839 17.0039 8.78494 16.4244 7.75349 15.393C6.72204 14.3615 6.14258 12.9626 6.14258 11.5039C6.14258 10.0452 6.72204 8.64627 7.75349 7.61482C8.78494 6.58337 10.1839 6.00391 11.6426 6.00391ZM11.6426 8.20391C10.7674 8.20391 9.928 8.55158 9.30913 9.17045C8.69026 9.78932 8.34258 10.6287 8.34258 11.5039C8.34258 12.3791 8.69026 13.2185 9.30913 13.8374C9.928 14.4562 10.7674 14.8039 11.6426 14.8039C12.5178 14.8039 13.3572 14.4562 13.976 13.8374C14.5949 13.2185 14.9426 12.3791 14.9426 11.5039C14.9426 10.6287 14.5949 9.78932 13.976 9.17045C13.3572 8.55158 12.5178 8.20391 11.6426 8.20391Z" fill="white"/>
</svg>
