<svg width="24" height="23" viewBox="0 0 24 23" fill="none" xmlns="http://www.w3.org/2000/svg">
<path d="M5.5312 2.94944C5.53087 3.59771 5.27304 4.2193 4.81441 4.67747C4.35578 5.13563 3.73394 5.39285 3.08567 5.39252C2.43739 5.3922 1.8158 5.13436 1.35764 4.67574C0.899468 4.21711 0.642254 3.59526 0.642578 2.94699C0.642903 2.29872 0.900738 1.67713 1.35936 1.21896C1.81799 0.760796 2.43984 0.503582 3.08811 0.503907C3.73638 0.504231 4.35797 0.762066 4.81614 1.22069C5.27431 1.67932 5.53152 2.30117 5.5312 2.94944ZM5.60453 7.20253H0.715908V22.5039H5.60453V7.20253ZM13.3285 7.20253H8.46437V22.5039H13.2797V14.4744C13.2797 10.0013 19.1093 9.58574 19.1093 14.4744V22.5039H23.9368V12.8122C23.9368 5.27153 15.3084 5.55263 13.2797 9.25575L13.3285 7.20253Z" fill="white"/>
</svg>
