<svg width="27" height="33" viewBox="0 0 27 33" fill="none" xmlns="http://www.w3.org/2000/svg">
<path fill-rule="evenodd" clip-rule="evenodd" d="M13.5 31.4981L14.762 30.1684C16.194 28.6348 17.482 27.1798 18.628 25.7959L19.574 24.6289C23.524 19.6522 25.5 15.7024 25.5 12.783C25.5 6.55143 20.128 1.5 13.5 1.5C6.872 1.5 1.5 6.55143 1.5 12.783C1.5 15.7024 3.476 19.6522 7.426 24.6289L8.372 25.7959C10.0069 27.7547 11.7173 29.6555 13.5 31.4981Z" stroke="#F4F4F4" stroke-width="2" stroke-linecap="round" stroke-linejoin="round"/>
<path d="M13.4995 17.3968C16.2609 17.3968 18.4995 15.3035 18.4995 12.7212C18.4995 10.139 16.2609 8.04572 13.4995 8.04572C10.7381 8.04572 8.49951 10.139 8.49951 12.7212C8.49951 15.3035 10.7381 17.3968 13.4995 17.3968Z" stroke="#F4F4F4" stroke-width="2" stroke-linecap="round" stroke-linejoin="round"/>
</svg>
