<svg width="32" height="35" viewBox="0 0 32 35" fill="none" xmlns="http://www.w3.org/2000/svg">
<path d="M16 32.7481C24.1667 32.7481 30 29.7853 30 23.1898C30 16.0223 26.5 11.2431 19.5 7.65816L22.2533 4.02534C22.3936 3.78704 22.4697 3.51489 22.474 3.23659C22.4783 2.95829 22.4106 2.6838 22.2778 2.44107C22.145 2.19834 21.9519 1.99604 21.718 1.85479C21.4842 1.71354 21.218 1.63838 20.9467 1.63696H11.0533C10.7825 1.63985 10.5173 1.71593 10.2843 1.85752C10.0513 1.99911 9.85885 2.20122 9.72633 2.44345C9.59381 2.68567 9.52591 2.95946 9.52948 3.23719C9.53305 3.51492 9.60796 3.78678 9.74667 4.02534L12.5 7.68209C5.5 11.291 2 16.0701 2 23.2376C2 29.7853 7.83333 32.7481 16 32.7481Z" stroke="#FCA311" stroke-width="3" stroke-linecap="round" stroke-linejoin="round"/>
<path d="M19.2271 16.7282C19.0532 16.2221 18.7304 15.7838 18.3033 15.4739C17.8761 15.1639 17.3657 14.9976 16.8425 14.9979H14.8871C14.33 14.9968 13.7922 15.2071 13.3772 15.5884C12.9622 15.9697 12.6994 16.4949 12.6395 17.063C12.5795 17.6311 12.7266 18.2019 13.0524 18.6654C13.3782 19.129 13.8597 19.4525 14.4041 19.5736L17.3838 20.2437C17.991 20.3826 18.5269 20.7461 18.8893 21.2647C19.2516 21.7834 19.4149 22.4207 19.3479 23.0551C19.2809 23.6894 18.9883 24.2761 18.5262 24.7032C18.064 25.1302 17.4645 25.3676 16.8425 25.3699H15.1601C14.0588 25.3699 13.1231 24.6472 12.7755 23.642M16.0001 14.9979V12.4061M16.0001 27.9617V25.3699" stroke="#FCA311" stroke-width="3" stroke-linecap="round" stroke-linejoin="round"/>
</svg>
