<svg width="40" height="44" viewBox="0 0 40 44" fill="none" xmlns="http://www.w3.org/2000/svg">
<path d="M20 42.1925C30.5 42.1925 38 38.3833 38 29.9033C38 20.6879 33.5 14.5433 24.5 9.93404L28.04 5.26327C28.2203 4.9569 28.3182 4.60698 28.3237 4.24917C28.3292 3.89136 28.2422 3.53843 28.0715 3.22635C27.9007 2.91427 27.6524 2.65418 27.3517 2.47257C27.0511 2.29096 26.7089 2.19432 26.36 2.1925H13.64C13.2918 2.19622 12.9508 2.29403 12.6512 2.47608C12.3517 2.65813 12.1042 2.91798 11.9338 3.22941C11.7635 3.54085 11.6762 3.89286 11.6808 4.24994C11.6853 4.60703 11.7817 4.95655 11.96 5.26327L15.5 9.96481C6.5 14.6048 2 20.7494 2 29.9648C2 38.3833 9.5 42.1925 20 42.1925Z" stroke="#FCA311" stroke-width="3" stroke-linecap="round" stroke-linejoin="round"/>
<path d="M24.1492 21.5956C23.9256 20.9448 23.5106 20.3813 22.9614 19.9829C22.4122 19.5844 21.7559 19.3706 21.0832 19.3709H18.5692C17.8529 19.3695 17.1614 19.6399 16.6278 20.1301C16.0943 20.6203 15.7564 21.2956 15.6793 22.0261C15.6022 22.7565 15.7913 23.4903 16.2102 24.0863C16.6291 24.6823 17.2482 25.0982 17.9482 25.254L21.7792 26.1156C22.5599 26.2941 23.2489 26.7615 23.7148 27.4283C24.1806 28.0951 24.3906 28.9146 24.3044 29.7301C24.2183 30.5457 23.8422 31.3001 23.2479 31.8491C22.6537 32.3981 21.883 32.7033 21.0832 32.7063H18.9202C17.5042 32.7063 16.3012 31.7771 15.8542 30.4848M20.0002 19.3709V16.0386M20.0002 36.0386V32.7063" stroke="#FCA311" stroke-width="3" stroke-linecap="round" stroke-linejoin="round"/>
</svg>
