<svg width="38" height="36" viewBox="0 0 38 36" fill="none" xmlns="http://www.w3.org/2000/svg">
<rect y="-0.00195312" width="38" height="36" rx="18" fill="white"/>
<path d="M19 25.998L17.695 24.8645C16.18 23.5421 14.9275 22.4013 13.9375 21.4422C12.9475 20.4831 12.16 19.6219 11.575 18.8586C10.99 18.0954 10.5814 17.3944 10.3492 16.7555C10.117 16.1167 10.0006 15.4628 10 14.7937C10 13.4277 10.4725 12.2869 11.4175 11.3713C12.3625 10.4558 13.54 9.99805 14.95 9.99805C15.73 9.99805 16.4725 10.1579 17.1775 10.4776C17.8825 10.7973 18.49 11.2478 19 11.8291C19.51 11.2478 20.1175 10.7973 20.8225 10.4776C21.5275 10.1579 22.27 9.99805 23.05 9.99805C24.46 9.99805 25.6375 10.4558 26.5825 11.3713C27.5275 12.2869 28 13.4277 28 14.7937C28 15.4622 27.8839 16.1161 27.6517 16.7555C27.4195 17.395 27.0106 18.096 26.425 18.8586C25.8394 19.6213 25.0519 20.4825 24.0625 21.4422C23.0731 22.4019 21.8206 23.5427 20.305 24.8645L19 25.998Z" fill="black"/>
</svg>
