<svg width="25" height="22" viewBox="0 0 25 22" fill="none" xmlns="http://www.w3.org/2000/svg">
<path d="M5.624 4.41986C7.33632 2.93102 9.48653 2.03966 11.75 1.88036V4.10486C11.75 4.30377 11.829 4.49454 11.9697 4.63519C12.1103 4.77584 12.3011 4.85486 12.5 4.85486C12.6989 4.85486 12.8897 4.77584 13.0303 4.63519C13.171 4.49454 13.25 4.30377 13.25 4.10486V1.88186C15.6402 2.0524 17.9003 3.0354 19.6547 4.66763C21.4092 6.29987 22.5526 8.48312 22.895 10.8549H20C19.8011 10.8549 19.6103 10.9339 19.4697 11.0745C19.329 11.2152 19.25 11.4059 19.25 11.6049C19.25 11.8038 19.329 11.9945 19.4697 12.1352C19.6103 12.2758 19.8011 12.3549 20 12.3549H23C22.9983 13.8043 22.7036 15.2384 22.1337 16.571C21.5637 17.9037 20.7303 19.1074 19.6835 20.1099C19.5456 20.2479 19.467 20.4342 19.4642 20.6292C19.4614 20.8243 19.5348 21.0127 19.6686 21.1546C19.8025 21.2965 19.9864 21.3806 20.1813 21.3892C20.3762 21.3977 20.5667 21.33 20.7125 21.2004C21.908 20.0578 22.8598 18.6851 23.5107 17.1649C24.1616 15.6447 24.4981 14.0085 24.5 12.3549C24.5 9.17226 23.2357 6.12001 20.9853 3.86958C18.7348 1.61914 15.6826 0.354858 12.5 0.354858C9.3174 0.354858 6.26516 1.61914 4.01472 3.86958C1.76428 6.12001 0.5 9.17226 0.5 12.3549C0.5 15.7974 2.03 19.0149 4.3445 21.2004C4.4162 21.2679 4.50051 21.3207 4.59261 21.3557C4.68471 21.3907 4.7828 21.4072 4.88127 21.4042C4.97975 21.4013 5.07669 21.379 5.16655 21.3386C5.25641 21.2983 5.33743 21.2406 5.405 21.1689C5.47257 21.0972 5.52535 21.0128 5.56033 20.9207C5.59531 20.8286 5.61181 20.7306 5.60889 20.6321C5.60596 20.5336 5.58367 20.4367 5.54328 20.3468C5.50289 20.257 5.4452 20.1759 5.3735 20.1084C3.3425 18.1899 2 15.3594 2 12.3549H5C5.19891 12.3549 5.38968 12.2758 5.53033 12.1352C5.67098 11.9945 5.75 11.8038 5.75 11.6049C5.75 11.4059 5.67098 11.2152 5.53033 11.0745C5.38968 10.9339 5.19891 10.8549 5 10.8549H2.105C2.39098 8.86403 3.24512 6.99795 4.565 5.48036L6.719 7.63586C6.85983 7.77669 7.05084 7.85581 7.25 7.85581C7.44916 7.85581 7.64017 7.77669 7.781 7.63586C7.92183 7.49503 8.00095 7.30402 8.00095 7.10486C8.00095 6.90569 7.92183 6.71469 7.781 6.57386L5.624 4.41986ZM17.6735 6.06536C17.8098 5.9571 17.9795 5.89963 18.1536 5.90279C18.3276 5.90595 18.4951 5.96955 18.6274 6.08268C18.7597 6.19582 18.8485 6.35144 18.8786 6.52289C18.9088 6.69433 18.8783 6.87091 18.7925 7.02236L18.6275 7.31636C18.0243 8.38151 17.4173 9.44452 16.8065 10.5054C16.3182 11.3543 15.8232 12.1993 15.3215 13.0404C15.1335 13.3568 14.9415 13.6708 14.7455 13.9824C14.5955 14.2179 14.4485 14.4414 14.3405 14.5674C13.953 15.0213 13.4011 15.3027 12.8061 15.3497C12.2112 15.3966 11.6219 15.2053 11.168 14.8179C10.7141 14.4304 10.4327 13.8784 10.3857 13.2835C10.3387 12.6885 10.53 12.0993 10.9175 11.6454C11.0255 11.5194 11.222 11.3379 11.432 11.1534C11.657 10.9539 11.9465 10.7094 12.272 10.4349C12.926 9.88886 13.745 9.21986 14.5445 8.57486C15.4963 7.8049 16.4513 7.03889 17.4095 6.27686L17.6735 6.06536Z" fill="white"/>
</svg>
