<svg width="37" height="17" viewBox="0 0 37 17" fill="none" xmlns="http://www.w3.org/2000/svg">
<path d="M5.04545 5.31505H5.26238L5.42902 5.17618L10.3078 1.1105H18.3586L33.3587 8.61059C33.6077 8.74646 33.8459 8.86994 34.0728 8.98754C34.6443 9.28378 35.1438 9.54269 35.5618 9.86824C36.0968 10.285 36.4009 10.7437 36.4009 11.4432V12.5258H33.3336H32.9086L32.7681 12.9271C32.146 14.7046 30.4726 15.8895 28.5909 15.8895C26.71 15.8895 25.0339 14.7048 24.3954 12.9229L24.2531 12.5258H23.8314H13.1518H12.7267L12.5863 12.9271C11.9642 14.7046 10.2908 15.8895 8.40909 15.8895C6.5282 15.8895 4.85211 14.7048 4.21357 12.9229L4.0713 12.5258H3.64955H0.599148V8.07953C0.599148 6.54362 1.82772 5.31505 3.36364 5.31505H5.04545ZM6.74967 5.94991L5.57185 6.99686H7.14773H24.3864L24.6543 5.86182L17.927 2.49819L17.8005 2.43493H17.6591H10.9318H10.704L10.5338 2.58627L6.74967 5.94991ZM10.6166 9.23567C10.0311 8.65021 9.23706 8.3213 8.40909 8.3213C7.58112 8.3213 6.78706 8.65021 6.20159 9.23567C5.61613 9.82114 5.28722 10.6152 5.28722 11.4432C5.28722 12.2711 5.61613 13.0652 6.20159 13.6507C6.78706 14.2361 7.58112 14.565 8.40909 14.565C9.23706 14.565 10.0311 14.2361 10.6166 13.6507C11.2021 13.0652 11.531 12.2711 11.531 11.4432C11.531 10.6152 11.2021 9.82114 10.6166 9.23567ZM30.7984 9.23567C30.2129 8.65021 29.4189 8.3213 28.5909 8.3213C27.7629 8.3213 26.9689 8.65021 26.3834 9.23567C25.7979 9.82114 25.469 10.6152 25.469 11.4432C25.469 12.2711 25.7979 13.0652 26.3834 13.6507C26.9689 14.2361 27.7629 14.565 28.5909 14.565C29.4189 14.565 30.2129 14.2361 30.7984 13.6507C31.3839 13.0652 31.7128 12.2711 31.7128 11.4432C31.7128 10.6152 31.3839 9.82114 30.7984 9.23567Z" stroke="white" stroke-width="1.1983"/>
</svg>
