<svg width="23" height="25" viewBox="0 0 23 25" fill="none" xmlns="http://www.w3.org/2000/svg">
<path d="M17.1249 23.2204L1.15413 2.68702C1.06995 2.57862 1.01788 2.44877 1.00385 2.31225C0.989809 2.17572 1.01436 2.038 1.07472 1.91474C1.13508 1.79148 1.22881 1.68763 1.34527 1.615C1.46172 1.54237 1.59622 1.50388 1.73346 1.50391H4.76457C4.87616 1.50407 4.98623 1.5297 5.08642 1.57884C5.1866 1.62798 5.27425 1.69933 5.34268 1.78746L21.3135 22.3208C21.3976 22.4292 21.4497 22.559 21.4637 22.6956C21.4778 22.8321 21.4532 22.9698 21.3929 23.0931C21.3325 23.2163 21.2388 23.3202 21.1223 23.3928C21.0059 23.4654 20.8714 23.5039 20.7341 23.5039H17.703C17.5914 23.5037 17.4814 23.4781 17.3812 23.429C17.281 23.3798 17.1933 23.3085 17.1249 23.2204Z" stroke="white" stroke-width="1.83333"/>
<path d="M21.0116 1.50403L1.45599 23.504" stroke="white" stroke-width="1.83333" stroke-linecap="round"/>
</svg>
