<svg width="31" height="31" viewBox="0 0 31 31" fill="none" xmlns="http://www.w3.org/2000/svg">
<path d="M26.1281 4.88702C24.746 3.49093 23.0998 2.38401 21.2854 1.63082C19.471 0.877629 17.5248 0.493246 15.5603 0.50009C7.32914 0.50009 0.620603 7.20863 0.620603 15.4398C0.620603 18.078 1.31407 20.6408 2.61055 22.9021L0.5 30.6508L8.41457 28.5704C10.6005 29.7614 13.0578 30.3946 15.5603 30.3946C23.7915 30.3946 30.5 23.686 30.5 15.4549C30.5 11.4599 28.9472 7.70612 26.1281 4.88702ZM15.5603 27.8619C13.3291 27.8619 11.1432 27.2589 9.22864 26.1282L8.77638 25.8569L4.07286 27.0931L5.32412 22.5101L5.02261 22.0428C3.78303 20.0634 3.12483 17.7753 3.12312 15.4398C3.12312 8.59557 8.701 3.01768 15.5452 3.01768C18.8618 3.01768 21.9824 4.31416 24.3191 6.66592C25.4761 7.81762 26.393 9.18752 27.0167 10.6962C27.6403 12.2049 27.9583 13.8224 27.9523 15.4549C27.9824 22.2991 22.4045 27.8619 15.5603 27.8619ZM22.3744 18.5755C21.9975 18.3946 20.1583 17.49 19.8266 17.3544C19.4799 17.2338 19.2387 17.1735 18.9824 17.5353C18.7261 17.9121 18.0176 18.7564 17.8065 18.9976C17.5955 19.2539 17.3693 19.284 16.9925 19.088C16.6156 18.9071 15.4095 18.5001 13.9925 17.2338C12.8769 16.2388 12.1382 15.0177 11.9121 14.6408C11.701 14.2639 11.8819 14.0679 12.0779 13.8719C12.2437 13.7061 12.4548 13.4348 12.6357 13.2237C12.8166 13.0127 12.892 12.8468 13.0126 12.6056C13.1332 12.3493 13.0729 12.1383 12.9824 11.9574C12.892 11.7765 12.1382 9.93728 11.8367 9.18351C11.5352 8.45989 11.2186 8.55034 10.9925 8.53526H10.2688C10.0126 8.53526 9.6206 8.62572 9.27387 9.0026C8.94221 9.37949 7.97739 10.284 7.97739 12.1232C7.97739 13.9624 9.3191 15.7413 9.5 15.9825C9.6809 16.2388 12.1382 20.0076 15.8769 21.6207C16.7663 22.0127 17.4598 22.2388 18.0025 22.4046C18.892 22.691 19.706 22.6458 20.3543 22.5554C21.0779 22.4498 22.5703 21.6508 22.8719 20.7765C23.1884 19.9021 23.1884 19.1634 23.0829 18.9976C22.9774 18.8317 22.7513 18.7564 22.3744 18.5755Z" fill="#F4F4F4"/>
</svg>
